<svg xmlns="http://www.w3.org/2000/svg" fill="#5f7185" viewBox="0 0 100.15 99.35"><title>ropecircle</title><path d="M10.85 23.7c-.35 0-.69 0-1 .07a15.47 15.47 0 0 0-2.07.41l-.2.07-.27.1a2.64 2.64 0 0 0-1.19.88 6 6 0 0 0-1.17 1.88 2.88 2.88 0 0 0-.22 1.3 9.28 9.28 0 0 1 3-.86l.41-.06a18.25 18.25 0 0 0 2.13-.42 4.05 4.05 0 0 0 1.56-.75 4.34 4.34 0 0 0 .47-.49 5.85 5.85 0 0 0 .53-.86l.14-.22a3.52 3.52 0 0 0 .58-1.27 13.11 13.11 0 0 1-2.7.22zM35.09 94.36l.3.77a7.08 7.08 0 0 0 1 1.73 5.12 5.12 0 0 0 1.66 1.25 6.11 6.11 0 0 0 1.18.43 4 4 0 0 0 2 0 2.43 2.43 0 0 0 .37-.16 8.59 8.59 0 0 1-1.26-1.57 10.25 10.25 0 0 1-.54-1l-.08-.17c-.14-.27-.28-.55-.41-.83s-.44-.81-.69-1.19-.49-.64-.72-.92a3.21 3.21 0 0 0-1.06-.92 5.85 5.85 0 0 0-1.85-.69 3.76 3.76 0 0 0-1.3.07 28 28 0 0 1 1.4 3.2zM29.35 92.66a7.22 7.22 0 0 0 .7 2 4.55 4.55 0 0 0 1.55 1.43 5.81 5.81 0 0 0 2.09.89 3.18 3.18 0 0 0 1.42-.15 8.5 8.5 0 0 1-.75-1.54l-.79-2a13.41 13.41 0 0 0-.83-1.8 5.46 5.46 0 0 0-.55-.78 4.15 4.15 0 0 0-.68-.71 4.44 4.44 0 0 0-1.76-.86 2.88 2.88 0 0 0-1-.08h-.28a17.79 17.79 0 0 1 .7 2.88zM40.7 95.16a10 10 0 0 0 1.77 2.48 6.55 6.55 0 0 0 2.19 1.39 7.51 7.51 0 0 0 2.63.31 4.49 4.49 0 0 0 1.28-.24 6.76 6.76 0 0 1-1.91-1.59l-.7-.87-1-1.24c-.25-.32-.54-.74-.86-1.1a4.92 4.92 0 0 0-1.88-1.41 5.08 5.08 0 0 0-2.15-.25 3 3 0 0 0-.76.15c.1.14.21.3.31.46.39.63.71 1.33 1.08 1.91zM24.24 88.98c0 .33 0 .68.08 1a15.77 15.77 0 0 0 .44 2.1l.07.19a2.31 2.31 0 0 1 .1.28 2.65 2.65 0 0 0 .89 1.18 9.2 9.2 0 0 0 1.93 1.1 2.87 2.87 0 0 0 1.3.21 9.38 9.38 0 0 1-.9-3l-.07-.44c-.13-.74-.32-1.38-.49-2.06a3.84 3.84 0 0 0-.77-1.57 4.24 4.24 0 0 0-1.35-1l-.25-.13a5.79 5.79 0 0 0-1.29-.52 16.24 16.24 0 0 1 .31 2.66zM52.4 95.04a4.69 4.69 0 0 1 .42.46 12 12 0 0 0 1.08 1.22c.2.19.41.39.62.56l.26.22.34.27a6.74 6.74 0 0 0 .62.42 6.31 6.31 0 0 0 3.59 1 5.33 5.33 0 0 0 1.93-.58 3.34 3.34 0 0 0 .71-.51h-.06a14.91 14.91 0 0 1-1.87-1.2c-.3-.22-.58-.47-.85-.71l-.83-.77a6.44 6.44 0 0 0-1.66-1.13 4.88 4.88 0 0 0-1.86-.48 9.64 9.64 0 0 0-2.08.34 4 4 0 0 0-1 .35 3 3 0 0 1 .41.37zM3.82 59.15c-.24.27-.46.53-.68.8a16.14 16.14 0 0 0-1.16 1.76l-.08.19-.12.26a2.75 2.75 0 0 0-.21 1.47 5.6 5.6 0 0 0 .52 2.15 2.87 2.87 0 0 0 .79 1.07 9.3 9.3 0 0 1 1.46-2.73l.25-.34a16.61 16.61 0 0 0 1.2-1.81 4 4 0 0 0 .55-1.64 4.53 4.53 0 0 0-.26-1.67l-.06-.27a3.58 3.58 0 0 0-.5-1.28 12.27 12.27 0 0 1-1.7 2.04zM19.22 83.51v.62a11.57 11.57 0 0 0-.11 1.62V87.37a5.88 5.88 0 0 0 .14.73 6.23 6.23 0 0 0 1.83 3.24 5.28 5.28 0 0 0 1.75 1 3.11 3.11 0 0 0 .87.15v-.06a15.61 15.61 0 0 1-.46-2.18c0-.36-.06-.73-.08-1.08s0-.79 0-1.16a6.12 6.12 0 0 0-.39-1.93 4.64 4.64 0 0 0-1-1.66 8.8 8.8 0 0 0-1.7-1.26 4.69 4.69 0 0 0-.93-.43 2.64 2.64 0 0 1 0 .55zM59.81 95.29c.28.25.54.46.8.66a15.63 15.63 0 0 0 1.8 1.16l.19.08.27.12a2.73 2.73 0 0 0 1.47.2 9.61 9.61 0 0 0 2.13-.61 3 3 0 0 0 1.06-.78 9.74 9.74 0 0 1-2.77-1.45l-.36-.25c-.6-.42-1.2-.75-1.81-1.1a4 4 0 0 0-1.66-.55 3.4 3.4 0 0 0-.64 0 4.35 4.35 0 0 0-1 .25l-.25.08a6.23 6.23 0 0 0-1.29.56 18.43 18.43 0 0 1 2.06 1.63zM7.62 70.66l-.33.75a6.63 6.63 0 0 0-.56 2 5.25 5.25 0 0 0 .3 2 6.52 6.52 0 0 0 .55 1.13 3.36 3.36 0 0 0 1.31 1.47l.36.15a6.94 6.94 0 0 1 .26-2c.09-.32.19-.63.3-.94v-.15c.12-.36.24-.7.35-1a9 9 0 0 0 .45-2v-.2a4.84 4.84 0 0 0 0-1.66 4.57 4.57 0 0 0-.81-1.8 4 4 0 0 0-1-.87 24.64 24.64 0 0 1-1.18 3.12zM4.79 65.38a7.29 7.29 0 0 0-1 1.94 5.1 5.1 0 0 0 0 2.13 5.55 5.55 0 0 0 .88 2.09 3.66 3.66 0 0 0 1.11.9 9.94 9.94 0 0 1 .56-1.6l.86-2a19.56 19.56 0 0 0 .7-1.85 4.46 4.46 0 0 0 .24-1.94 4.62 4.62 0 0 0-.67-1.85 5.77 5.77 0 0 0-.58-.74l-.12-.13-.07-.07a29.57 29.57 0 0 1-1.6 2.53zM14.8 78.62l-.15 1v.24l-.06.36c0 .16 0 .31-.06.46a10.35 10.35 0 0 0 0 1.58 5.72 5.72 0 0 0 2.87 4.6l.3.17a2.51 2.51 0 0 0 .46.24v-.08-1.59-.46q0-.44.09-.87c0-.33.06-.66.07-1s0-.42 0-.62v-.48c0-.2-.1-.43-.16-.65a5.9 5.9 0 0 0-1.9-2.94 4.39 4.39 0 0 0-1.18-.76v.23c-.23.24-.26.39-.28.57zM10.93 75.22a8.9 8.9 0 0 0-.54 3 6.25 6.25 0 0 0 2.16 4.64 4.47 4.47 0 0 0 1.08.73 6.74 6.74 0 0 1-.22-2.46l.13-1.11c0-.51.15-1 .24-1.57s.15-.9.19-1.38a4.59 4.59 0 0 0-1.63-4 3.16 3.16 0 0 0-.66-.44c0 .18-.06.36-.1.54-.17.64-.4 1.3-.65 2.05zM45.8 94.74l.56.75.22.28.21.3a3.58 3.58 0 0 0 .28.37 11.92 11.92 0 0 0 1.11 1.14 6.35 6.35 0 0 0 1.22.82 5.54 5.54 0 0 0 1.36.44 5.78 5.78 0 0 0 2.72-.09l.32-.09a3.28 3.28 0 0 0 .51-.15l-.07-.06c-.25-.21-.49-.44-.73-.66l-.34-.33a5.76 5.76 0 0 1-.41-.44l-.56-.67a7.65 7.65 0 0 0-.65-.74 5.89 5.89 0 0 0-.45-.42l-.24-.2a7.07 7.07 0 0 0-.73-.44 6.37 6.37 0 0 0-2.55-.71h-.88a3.37 3.37 0 0 0-1.37.33l.14.17c.12.13.23.27.33.4zM95.39 61.34l.73-.34a7 7 0 0 0 1.73-1.08 5.33 5.33 0 0 0 1.26-1.67 3.89 3.89 0 0 0 .35-1.2 4.56 4.56 0 0 0 0-2 2.83 2.83 0 0 0-.15-.35v-.05a8.67 8.67 0 0 1-1.57 1.28c-.32.21-.65.4-1 .57l-.12.07-.81.45a9.86 9.86 0 0 0-1.77 1.16l-.15.13a3.77 3.77 0 0 0-1.12 1.22 6.91 6.91 0 0 0-.6 1.88 3.48 3.48 0 0 0 .07 1.29c.98-.53 2.14-.91 3.15-1.36zM96.01 54.75a10.47 10.47 0 0 0 2.52-1.83 7.45 7.45 0 0 0 .8-1 6 6 0 0 0 .49-1.2 7.26 7.26 0 0 0 .31-2.63 4.41 4.41 0 0 0-.24-1.27 6.85 6.85 0 0 1-1.59 1.94l-.86.71-1.25 1c-.29.24-.68.55-1 .89a4.15 4.15 0 0 0-1.59 4.06 7.57 7.57 0 0 0 .18.76 4.63 4.63 0 0 1 .46-.31c.56-.44 1.17-.78 1.77-1.12zM93.82 68.11a5.87 5.87 0 0 0 2-.75 5.49 5.49 0 0 0 1.39-1.58 5.81 5.81 0 0 0 .89-2.09 3.65 3.65 0 0 0-.25-1.44 10.26 10.26 0 0 1-1.45.8l-2 .82a6.68 6.68 0 0 0-3.23 2.14 4.61 4.61 0 0 0-.87 1.76 3.44 3.44 0 0 0-.07 1v.28a19 19 0 0 1 2.9-.74zM75.7 87.87a10.05 10.05 0 0 0 3 .48 6.05 6.05 0 0 0 2.52-.6 7.33 7.33 0 0 0 2.08-1.65 4.74 4.74 0 0 0 .73-1.07 6.91 6.91 0 0 1-2.49.24l-1.15-.12-1.52-.18c-.39 0-.89-.12-1.38-.15a5 5 0 0 0-2.32.35 4.84 4.84 0 0 0-1.69 1.36 3.27 3.27 0 0 0-.43.66c.17 0 .36 0 .54.09.77.17 1.52.44 2.11.59zM71.24 91.29l.77.32a6.61 6.61 0 0 0 2 .47 5.11 5.11 0 0 0 2.05-.32 5.81 5.81 0 0 0 1.13-.54 4 4 0 0 0 1.42-1.39 2 2 0 0 0 .14-.37 8.23 8.23 0 0 1-2-.2 10.69 10.69 0 0 1-1.07-.3l-1.06-.35a9.86 9.86 0 0 0-2.06-.43h-.12a3.87 3.87 0 0 0-1.72.08 5.54 5.54 0 0 0-1.79.84 4 4 0 0 0-.86 1 24.43 24.43 0 0 1 3.17 1.19zM66.02 94.21a6.94 6.94 0 0 0 2 .93 4.3 4.3 0 0 0 2.1-.1 5.53 5.53 0 0 0 2.1-.88 3.38 3.38 0 0 0 .89-1.11 9.21 9.21 0 0 1-1.63-.55l-2-.84a7.85 7.85 0 0 0-3.8-.83 4.46 4.46 0 0 0-1.85.66 3.14 3.14 0 0 0-.72.63l-.1.11-.09.11a17.68 17.68 0 0 1 2.56 1.5zM87.21 73.09l-.11.22a3.6 3.6 0 0 0-.46 1.35 11.73 11.73 0 0 1 2.57-.38h.1q.46 0 .93-.09a16.71 16.71 0 0 0 2.11-.46l.2-.08.28-.1a2.44 2.44 0 0 0 1.11-.95 9.33 9.33 0 0 0 1.09-1.93 2.85 2.85 0 0 0 .21-1.29 9.88 9.88 0 0 1-3 .94l-.42.08a15.28 15.28 0 0 0-2 .53 5.1 5.1 0 0 0-1.53.82 4.59 4.59 0 0 0-1.08 1.34zM83.87 79.42h.62a8.75 8.75 0 0 0 1.62.07l.81-.07h.78a6.47 6.47 0 0 0 .74-.15 7.68 7.68 0 0 0 1.87-.74 3.84 3.84 0 0 0 1.33-1.15 6.48 6.48 0 0 0 .94-1.77 3 3 0 0 0 .15-.85h-.03a16 16 0 0 1-2.2.49c-.37.05-.75.07-1.11.09s-.75 0-1.1.08a7.74 7.74 0 0 0-1.92.43 4.89 4.89 0 0 0-1.67 1 8 8 0 0 0-1.19 1.75 4.87 4.87 0 0 0-.43.92 2.74 2.74 0 0 1 .56 0zM79.03 83.92l.89.12.39.05h.36a3.65 3.65 0 0 0 .46.07 12.18 12.18 0 0 0 1.6 0 5.42 5.42 0 0 0 2.69-1 5.74 5.74 0 0 0 1.86-2c0-.1.12-.19.17-.29a3.75 3.75 0 0 0 .21-.5h-.08a9 9 0 0 1-1.57.08 3.41 3.41 0 0 1-.46 0c-.3 0-.59 0-.88-.07a8.74 8.74 0 0 0-1-.06h-1.02a6.3 6.3 0 0 0-.75.18 7 7 0 0 0-2.9 2 3.14 3.14 0 0 0-.72 1.2h.22a4.8 4.8 0 0 1 .53.22zM24.86 10.73a8.44 8.44 0 0 0-3-.64 6.64 6.64 0 0 0-2.51.55 5.38 5.38 0 0 0-2.16 1.53 4.31 4.31 0 0 0-.74 1.07 6.63 6.63 0 0 1 2.44-.19c.38 0 .79.11 1.18.18l1.53.28a13.12 13.12 0 0 0 1.36.19 5.23 5.23 0 0 0 2.3-.31 3.71 3.71 0 0 0 1.77-1.24 2.92 2.92 0 0 0 .44-.66l-.53-.1c-.71-.18-1.4-.43-2.08-.66zM81.09 16.81a17.13 17.13 0 0 0 0-4.64 5.82 5.82 0 0 0-1.78-3.26 5.63 5.63 0 0 0-1.69-1.09 3.05 3.05 0 0 0-.87-.16 10.78 10.78 0 0 1 .39 2.22c.06.77 0 1.52 0 2.28a5.6 5.6 0 0 0 .36 1.91 6.83 6.83 0 0 0 .9 1.71 5.61 5.61 0 0 0 1.67 1.32 4.57 4.57 0 0 0 .94.43 3 3 0 0 1 0-.54zM71.16 7.29a5.18 5.18 0 0 0-1.23-2.8c-.28-.28-.6-.53-.91-.79a5.56 5.56 0 0 0-2.1-.89 3.58 3.58 0 0 0-1.45.11 9.67 9.67 0 0 1 .72 1.55l.75 2c.5 1.2.93 2.6 2 3.4a4.32 4.32 0 0 0 1.77.87 2.8 2.8 0 0 0 .93.16h.27c-.28-1-.41-2-.59-3zM76.2 11.14c0-.38 0-.74-.05-1.06a5.36 5.36 0 0 0-1.44-3.73 6.21 6.21 0 0 0-1.88-1.22 2.92 2.92 0 0 0-1.31-.22 9.12 9.12 0 0 1 .85 3l.05.43a15.25 15.25 0 0 0 .4 2.13 3.67 3.67 0 0 0 .75 1.56 3.51 3.51 0 0 0 .76.67h.07l.51.33.24.16a3.4 3.4 0 0 0 1.26.57 11.85 11.85 0 0 1-.21-2.62zM65.44 5.46l-.3-.8a8 8 0 0 0-1-1.85 5 5 0 0 0-1.65-1.25 6.29 6.29 0 0 0-1.18-.44 4 4 0 0 0-2-.18 2.55 2.55 0 0 0-.35.14h-.06a6.88 6.88 0 0 1 1.2 1.66c.18.33.34.66.49 1l.07.13.42.9a9.68 9.68 0 0 0 1.1 1.76l.12.15a5.35 5.35 0 0 0 1.17 1.2 4.6 4.6 0 0 0 1.85.73 4 4 0 0 0 1.33-.06 25.25 25.25 0 0 1-1.21-3.09zM59.86 4.46c-.25-.51-.5-1-.77-1.44A6.59 6.59 0 0 0 55.97.46a7.93 7.93 0 0 0-1.28-.4 6.68 6.68 0 0 0-1.34 0 5.06 5.06 0 0 0-1.3.23 6.67 6.67 0 0 1 1.88 1.6c.23.29.45.56.67.88l.93 1.35a10.68 10.68 0 0 0 .83 1.11 4.79 4.79 0 0 0 1.86 1.4 4.12 4.12 0 0 0 2.14.39 3.16 3.16 0 0 0 .78-.15 5 5 0 0 1-.3-.45c-.37-.66-.67-1.32-.98-1.96zM54.7 4.66c-.22-.34-.44-.69-.67-1l-.07-.09c-.08-.1-.15-.21-.22-.31s-.17-.25-.26-.36a9.61 9.61 0 0 0-1.09-1.13A6.9 6.9 0 0 0 49.84.38a5.47 5.47 0 0 0-2.73.06l-.34.09a3.06 3.06 0 0 0-.43.13l.43.36c.4.35.76.72 1.12 1.1a3.74 3.74 0 0 1 .3.33c.19.22.36.45.54.68a8.67 8.67 0 0 0 .62.74l.44.44.14.14.41.28a5.14 5.14 0 0 0 2.56.77 8.64 8.64 0 0 0 .88 0 4 4 0 0 0 1.37-.22l-.14-.19c-.13-.15-.23-.29-.31-.43zM89.13 25.42a10.26 10.26 0 0 0 .69-3 7 7 0 0 0-2.05-4.72 4.93 4.93 0 0 0-1.08-.75 6.12 6.12 0 0 1 .17 2.46c-.06.37-.12.74-.19 1.1l-.3 1.61a13 13 0 0 0-.2 1.36 4.62 4.62 0 0 0 1.52 4.11 2.81 2.81 0 0 0 .67.45c0-.17.06-.35.1-.52.18-.74.43-1.43.67-2.1zM95.06 35.47a6.72 6.72 0 0 0 1-3 4.5 4.5 0 0 0-.78-3.17 3.67 3.67 0 0 0-1.12-.94 10.07 10.07 0 0 1-.58 1.59c-.36.76-.6 1.36-.9 1.93a6.85 6.85 0 0 0-1 3.79 4.69 4.69 0 0 0 .22 1 4.37 4.37 0 0 0 .34.92 3.18 3.18 0 0 0 .56.77l.11.12.08.08c.52-1.09 1.38-2.04 2.07-3.09zM95.8 41.81a12.31 12.31 0 0 0 1.76-2 4 4 0 0 0 .61-2.45 9.81 9.81 0 0 0-.41-2.19 2.36 2.36 0 0 0-.76-1.09 10.13 10.13 0 0 1-2.07 3.21 5.8 5.8 0 0 0-1.56 3.23 6.31 6.31 0 0 0 .15 1.84 6 6 0 0 0 .18.7l.35.73a11.68 11.68 0 0 1 1.75-1.98zM48.61 4.58a2.86 2.86 0 0 1-.56-.59 11.13 11.13 0 0 0-1-1.22c-.19-.2-.39-.39-.6-.58l-.27-.26-.31-.28c-.2-.17-.4-.33-.61-.48a5.38 5.38 0 0 0-1.8-.86 5.26 5.26 0 0 0-1.74-.19 6.35 6.35 0 0 0-2 .42 2.37 2.37 0 0 0-.73.48 11.61 11.61 0 0 1 1.84 1.32c.19.16.36.33.53.5s.28.33.47.48.41.4.62.6a6.07 6.07 0 0 0 1.6 1.09 8.79 8.79 0 0 0 .9.34 3.42 3.42 0 0 0 .94.24 5.65 5.65 0 0 0 2.1-.25 7.44 7.44 0 0 0 1-.4c0-.16-.19-.2-.3-.28zM92.35 30.1l.34-.75a7.68 7.68 0 0 0 .6-2 4 4 0 0 0-.2-2.08 5.81 5.81 0 0 0-.54-1.13 4.38 4.38 0 0 0-1.27-1.53 2.49 2.49 0 0 0-.33-.16h-.06a9.41 9.41 0 0 1-.36 2c-.11.37-.23.73-.37 1.08l-.35 1a10.75 10.75 0 0 0-.49 2v.17a4 4 0 0 0-.06 1.71 4.62 4.62 0 0 0 .82 1.82 5.72 5.72 0 0 0 .92.92c.39-1.03.87-2.03 1.35-3.05zM85.35 21.88l.21-1v-.28c0-.13.06-.25.08-.37a2.77 2.77 0 0 0 .09-.47 9.94 9.94 0 0 0 0-1.55 5.7 5.7 0 0 0-2.76-4.7l-.31-.18a3.37 3.37 0 0 0-.46-.25v2.1c0 .29-.07.58-.1.87a6.65 6.65 0 0 0-.08 1v1.04a7 7 0 0 0 .13.78 6.11 6.11 0 0 0 1.86 3 3.15 3.15 0 0 0 1.12.83v-.23c.16-.24.18-.41.22-.59zM95.19 49.23a4.51 4.51 0 0 1 .47-.4 11.54 11.54 0 0 0 1.22-1c.2-.19.39-.38.58-.59l.25-.26.3-.32a7.05 7.05 0 0 0 .47-.61 5.29 5.29 0 0 0 1.11-3.55 6.42 6.42 0 0 0-.42-2 3.14 3.14 0 0 0-.44-.74v.05a18.16 18.16 0 0 1-1.37 1.83c-.23.26-.47.51-.71.75l-.07.07c-.28.27-.55.53-.8.8a5.87 5.87 0 0 0-1.09 1.59 6.27 6.27 0 0 0-.63 1.84 5.5 5.5 0 0 0 .26 2.12 4.84 4.84 0 0 0 .35 1 3.64 3.64 0 0 1 .37-.4zM5.29 34.46l-.78.3a6.19 6.19 0 0 0-1.81 1 4.94 4.94 0 0 0-1.24 1.64 5.87 5.87 0 0 0-.43 1.18 3.32 3.32 0 0 0-.13 2 2.39 2.39 0 0 0 .15.37 6.81 6.81 0 0 1 1.65-1.22c.34-.19.69-.36 1-.52l1-.47a8.85 8.85 0 0 0 1.76-1.1l.16-.12a5.16 5.16 0 0 0 1.15-1.23 4.72 4.72 0 0 0 .73-1.84 4.11 4.11 0 0 0-.07-1.31 23.7 23.7 0 0 1-3.14 1.32zM7.62 28.64l-.54.11a6.86 6.86 0 0 0-2 .68 4.45 4.45 0 0 0-1.5 1.49 5.57 5.57 0 0 0-.89 2.09 3.71 3.71 0 0 0 .12 1.43 9.73 9.73 0 0 1 1.55-.72l2-.76a15.36 15.36 0 0 0 1.8-.8 4.48 4.48 0 0 0 1.54-1.19 4.59 4.59 0 0 0 .86-1.76 5.55 5.55 0 0 0 .14-.92v-.27a25.38 25.38 0 0 1-2.91.63zM4.62 45.16l-.75.56-.27.19-.3.21-.37.28a11.58 11.58 0 0 0-1.14 1.08 6.33 6.33 0 0 0-1.35 2.56 5.61 5.61 0 0 0 .08 2.71l.09.33a2.91 2.91 0 0 0 .16.5l.05-.06c.35-.4.72-.77 1.1-1.13a4.26 4.26 0 0 1 .33-.31c.22-.19.45-.38.68-.55a9.09 9.09 0 0 0 .74-.63c.14-.15.29-.3.42-.46a9.33 9.33 0 0 0 .67-.94 5.09 5.09 0 0 0 .77-2.54 8.84 8.84 0 0 0 0-.89 4.42 4.42 0 0 0-.27-1.36l-.18.13zM4.35 40.03a8.54 8.54 0 0 0-2.52 1.71 6.24 6.24 0 0 0-1.8 4.79 4.86 4.86 0 0 0 .24 1.28 6.78 6.78 0 0 1 1.59-1.88l.91-.71c.39-.31.86-.6 1.28-.9s.75-.53 1.11-.84a4.61 4.61 0 0 0 1.74-4 3.16 3.16 0 0 0-.15-.78l-.45.3c-.6.4-1.3.71-1.95 1.03zM4.24 51.75a6.1 6.1 0 0 1-.46.41 11.54 11.54 0 0 0-1.22 1.06 8.08 8.08 0 0 0-.57.6l-.26.27c-.1.11-.2.21-.29.33a3.68 3.68 0 0 0-.45.61 6.13 6.13 0 0 0-1 3.57 4.51 4.51 0 0 0 .48 1.94 3.2 3.2 0 0 0 .52.72v-.05a13.5 13.5 0 0 1 1.23-1.85c.23-.29.5-.55.75-.81l.1-.11c.24-.24.49-.49.72-.75a5.82 5.82 0 0 0 1.08-1.61 5 5 0 0 0 .5-1.85 5.84 5.84 0 0 0-.26-2.09 4.2 4.2 0 0 0-.35-1 3.34 3.34 0 0 1-.37.41zM16.42 18.81h-.61a11.78 11.78 0 0 0-1.6-.13H13a3.1 3.1 0 0 0-.43 0 4.64 4.64 0 0 0-.76.1 6.18 6.18 0 0 0-3.23 1.8 4.72 4.72 0 0 0-1 1.7 3.11 3.11 0 0 0-.15.87h.06a13.23 13.23 0 0 1 2.17-.43h2.28a6 6 0 0 0 1.92-.36 5.38 5.38 0 0 0 1.67-.93 5.67 5.67 0 0 0 1.31-1.66 4.69 4.69 0 0 0 .43-.93 3.37 3.37 0 0 1-.54 0zM35.23 5.02l-.43-.29a6.64 6.64 0 0 0-1.9-.95 5.63 5.63 0 0 0-2.13 0 4.31 4.31 0 0 0-2.11.81 3.89 3.89 0 0 0-.92 1.12 11 11 0 0 1 1.59.57l1.93.88a7.21 7.21 0 0 0 3.78 1 6.08 6.08 0 0 0 1.86-.62 2.75 2.75 0 0 0 .77-.55l.11-.11.09-.08a23.11 23.11 0 0 1-2.52-1.7zM29.48 7.49l-.75-.34a7.84 7.84 0 0 0-2-.61 4.16 4.16 0 0 0-2 .25 5.81 5.81 0 0 0-1.13.54 4.52 4.52 0 0 0-1.52 1.26 2.21 2.21 0 0 0-.16.35 8.44 8.44 0 0 1 2 .34c.34.1.69.22 1 .34h.12l1 .34a8.74 8.74 0 0 0 2 .46h.19a3.85 3.85 0 0 0 1.68 0 4.62 4.62 0 0 0 1.81-.81 5.73 5.73 0 0 0 .89-1c-1.09-.18-2.09-.64-3.13-1.12zM21.4 14.52l-.9-.18-.4-.07-.36-.06a3.5 3.5 0 0 0-.45-.07 9 9 0 0 0-1.56 0 6.78 6.78 0 0 0-2.77.82 5.52 5.52 0 0 0-1.88 2l-.17.29a4.56 4.56 0 0 0-.24.44H14.8l.79.09a8.27 8.27 0 0 0 1 .08h1.21a5.3 5.3 0 0 0 .55-.1 5.59 5.59 0 0 0 3-1.88 3.25 3.25 0 0 0 .81-1.12h-.22c-.19-.18-.37-.2-.54-.24zM41.05 3.93c-.25-.25-.5-.49-.77-.73A12.14 12.14 0 0 0 38.53 2l-.19-.08-.26-.12a2.58 2.58 0 0 0-1.45-.21 8.34 8.34 0 0 0-2.18.43 2.93 2.93 0 0 0-1.07.78 8 8 0 0 1 2.7 1.55l.35.27a13.58 13.58 0 0 0 1.78 1.2 3.74 3.74 0 0 0 1.62.56 4.28 4.28 0 0 0 .62 0 6.47 6.47 0 0 0 1.06-.16l.25-.06a3.65 3.65 0 0 0 1.31-.5 12.76 12.76 0 0 1-2.02-1.73z"/></svg>